<mxfile host="app.diagrams.net" agent="Mozilla/5.0 (Windows NT 10.0; Win64; x64) AppleWebKit/537.36 (KHTML, like Gecko) Chrome/130.0.0.0 Safari/537.36" version="26.0.4">
  <diagram name="Страница — 1" id="pY1bWnm50XeqE6j7AwqM">
    <mxGraphModel dx="1593" dy="829" grid="1" gridSize="10" guides="1" tooltips="1" connect="1" arrows="1" fold="1" page="1" pageScale="1" pageWidth="827" pageHeight="1169" math="0" shadow="0">
      <root>
        <mxCell id="0" />
        <mxCell id="1" parent="0" />
        <object placeholders="1" c4Name="Cистемный администратор" c4Type="Person" c4Description="Вносит настройки." label="&lt;font style=&quot;font-size: 16px&quot;&gt;&lt;b&gt;%c4Name%&lt;/b&gt;&lt;/font&gt;&lt;div&gt;[%c4Type%]&lt;/div&gt;&lt;br&gt;&lt;div&gt;&lt;font style=&quot;font-size: 11px&quot;&gt;&lt;font color=&quot;#cccccc&quot;&gt;%c4Description%&lt;/font&gt;&lt;/div&gt;" id="sh2D33XTM4yPddAIKR61-2">
          <mxCell style="html=1;fontSize=11;dashed=0;whiteSpace=wrap;fillColor=#083F75;strokeColor=#06315C;fontColor=#ffffff;shape=mxgraph.c4.person2;align=center;metaEdit=1;points=[[0.5,0,0],[1,0.5,0],[1,0.75,0],[0.75,1,0],[0.5,1,0],[0.25,1,0],[0,0.75,0],[0,0.5,0]];resizable=0;" vertex="1" parent="1">
            <mxGeometry x="20" y="20" width="200" height="180" as="geometry" />
          </mxCell>
        </object>
        <object placeholders="1" c4Name="SPA&#xa;Системного&#xa;администратора" c4Type="" c4Technology="" c4Description="Управлениe настройками" label="&lt;font style=&quot;font-size: 16px&quot;&gt;&lt;b&gt;%c4Name%&lt;/b&gt;&lt;/font&gt;&#xa;&lt;br&gt;&lt;div&gt;&lt;font style=&quot;font-size: 11px&quot;&gt;&lt;font color=&quot;#E6E6E6&quot;&gt;[%c4Description%]&lt;/font&gt;&lt;/div&gt;" id="sh2D33XTM4yPddAIKR61-3">
          <mxCell style="shape=mxgraph.c4.webBrowserContainer2;whiteSpace=wrap;html=1;boundedLbl=1;rounded=0;labelBackgroundColor=none;strokeColor=#118ACD;fillColor=#23A2D9;strokeColor=#118ACD;strokeColor2=#0E7DAD;fontSize=12;fontColor=#ffffff;align=center;metaEdit=1;points=[[0.5,0,0],[1,0.25,0],[1,0.5,0],[1,0.75,0],[0.5,1,0],[0,0.75,0],[0,0.5,0],[0,0.25,0]];resizable=0;" vertex="1" parent="1">
            <mxGeometry x="330" y="40" width="240" height="160" as="geometry" />
          </mxCell>
        </object>
        <object placeholders="1" c4Name="API Gateway Сервиса&#xa;управления настройками " c4Type="Container" c4Technology="Envoy" c4Description="API шлюз и балансировщик" label="&lt;font style=&quot;font-size: 16px&quot;&gt;&lt;b&gt;%c4Name%&lt;/b&gt;&lt;/font&gt;&lt;div&gt;[%c4Type%: %c4Technology%]&lt;/div&gt;&lt;br&gt;&lt;div&gt;&lt;font style=&quot;font-size: 11px&quot;&gt;%c4Description%&lt;/font&gt;&lt;/div&gt;" id="sh2D33XTM4yPddAIKR61-4">
          <mxCell style="rounded=1;whiteSpace=wrap;html=1;labelBackgroundColor=none;fillColor=#63BEF2;fontColor=#ffffff;align=center;arcSize=6;strokeColor=#2086C9;metaEdit=1;resizable=0;points=[[0.25,0,0],[0.5,0,0],[0.75,0,0],[1,0.25,0],[1,0.5,0],[1,0.75,0],[0.75,1,0],[0.5,1,0],[0.25,1,0],[0,0.75,0],[0,0.5,0],[0,0.25,0]];" vertex="1" parent="1">
            <mxGeometry x="660" y="80" width="240" height="120" as="geometry" />
          </mxCell>
        </object>
        <object placeholders="1" c4Name="Сервис управления настройками" c4Type="ASP.Net Core Web-API, SignalR" c4Description="Производит CRUD операции с настройками" label="&lt;font style=&quot;font-size: 16px&quot;&gt;&lt;b&gt;%c4Name%&lt;/b&gt;&lt;/font&gt;&lt;div&gt;[%c4Type%]&lt;/div&gt;&lt;br&gt;&lt;div&gt;&lt;font style=&quot;font-size: 11px&quot;&gt;&lt;font color=&quot;#cccccc&quot;&gt;%c4Description%&lt;/font&gt;&lt;/div&gt;" id="sh2D33XTM4yPddAIKR61-5">
          <mxCell style="rounded=1;whiteSpace=wrap;html=1;labelBackgroundColor=none;fillColor=#1061B0;fontColor=#ffffff;align=center;arcSize=10;strokeColor=#0D5091;metaEdit=1;resizable=0;points=[[0.25,0,0],[0.5,0,0],[0.75,0,0],[1,0.25,0],[1,0.5,0],[1,0.75,0],[0.75,1,0],[0.5,1,0],[0.25,1,0],[0,0.75,0],[0,0.5,0],[0,0.25,0]];" vertex="1" parent="1">
            <mxGeometry x="990" y="80" width="240" height="120" as="geometry" />
          </mxCell>
        </object>
        <object placeholders="1" c4Name="БД для хранения настроек" c4Type="Container" c4Technology="PostgreSql" c4Description="Хранит настройки" label="&lt;font style=&quot;font-size: 16px&quot;&gt;&lt;b&gt;%c4Name%&lt;/b&gt;&lt;/font&gt;&lt;div&gt;[%c4Type%:&amp;nbsp;%c4Technology%]&lt;/div&gt;&lt;br&gt;&lt;div&gt;&lt;font style=&quot;font-size: 11px&quot;&gt;&lt;font color=&quot;#E6E6E6&quot;&gt;%c4Description%&lt;/font&gt;&lt;/div&gt;" id="sh2D33XTM4yPddAIKR61-6">
          <mxCell style="shape=cylinder3;size=15;whiteSpace=wrap;html=1;boundedLbl=1;rounded=0;labelBackgroundColor=none;fillColor=#23A2D9;fontSize=12;fontColor=#ffffff;align=center;strokeColor=#0E7DAD;metaEdit=1;points=[[0.5,0,0],[1,0.25,0],[1,0.5,0],[1,0.75,0],[0.5,1,0],[0,0.75,0],[0,0.5,0],[0,0.25,0]];resizable=0;" vertex="1" parent="1">
            <mxGeometry x="1320" y="80" width="240" height="120" as="geometry" />
          </mxCell>
        </object>
        <object placeholders="1" c4Name="Внедряемый модуль безопасности" c4Type="Системная утилита" c4Technology="C# для IoT " c4Description="- Мониторит сетевой трафик.&#xa;- Передает телеметрию&#xa;на сервер ИБ" label="&lt;font style=&quot;font-size: 16px&quot;&gt;&lt;b&gt;%c4Name%&lt;/b&gt;&lt;/font&gt;&lt;div&gt;[%c4Type%: %c4Technology%]&lt;/div&gt;&lt;br&gt;&lt;div&gt;&lt;font style=&quot;font-size: 11px&quot;&gt;&lt;font color=&quot;#E6E6E6&quot;&gt;%c4Description%&lt;/font&gt;&lt;/div&gt;" id="sh2D33XTM4yPddAIKR61-7">
          <mxCell style="rounded=1;whiteSpace=wrap;html=1;fontSize=11;labelBackgroundColor=none;fillColor=#23A2D9;fontColor=#ffffff;align=center;arcSize=10;strokeColor=#0E7DAD;metaEdit=1;resizable=0;points=[[0.25,0,0],[0.5,0,0],[0.75,0,0],[1,0.25,0],[1,0.5,0],[1,0.75,0],[0.75,1,0],[0.5,1,0],[0.25,1,0],[0,0.75,0],[0,0.5,0],[0,0.25,0]];" vertex="1" parent="1">
            <mxGeometry x="1650" y="80" width="240" height="120" as="geometry" />
          </mxCell>
        </object>
        <object placeholders="1" c4Name="Система мониторинга" c4Type="Системная утилита : C# для IoT " c4Description="- Читает настройки.&#xa;- Отправляет данные&#xa;от базовой станции." label="&lt;font style=&quot;font-size: 16px&quot;&gt;&lt;b&gt;%c4Name%&lt;/b&gt;&lt;/font&gt;&lt;div&gt;[%c4Type%]&lt;/div&gt;&lt;br&gt;&lt;div&gt;&lt;font style=&quot;font-size: 11px&quot;&gt;&lt;font color=&quot;#cccccc&quot;&gt;%c4Description%&lt;/font&gt;&lt;/div&gt;" id="sh2D33XTM4yPddAIKR61-8">
          <mxCell style="rounded=1;whiteSpace=wrap;html=1;labelBackgroundColor=none;fillColor=#1061B0;fontColor=#ffffff;align=center;arcSize=10;strokeColor=#0D5091;metaEdit=1;resizable=0;points=[[0.25,0,0],[0.5,0,0],[0.75,0,0],[1,0.25,0],[1,0.5,0],[1,0.75,0],[0.75,1,0],[0.5,1,0],[0.25,1,0],[0,0.75,0],[0,0.5,0],[0,0.25,0]];" vertex="1" parent="1">
            <mxGeometry x="1980" y="80" width="240" height="120" as="geometry" />
          </mxCell>
        </object>
        <mxCell id="sh2D33XTM4yPddAIKR61-9" value="" style="html=1;points=[[0,0,0,0,5],[0,1,0,0,-5],[1,0,0,0,5],[1,1,0,0,-5]];perimeter=orthogonalPerimeter;outlineConnect=0;targetShapes=umlLifeline;portConstraint=eastwest;newEdgeStyle={&quot;curved&quot;:0,&quot;rounded&quot;:0};fillColor=light-dark(#23458b, #6db2ff);fontColor=#ffffff;strokeColor=#001DBC;" vertex="1" parent="1">
          <mxGeometry x="115" y="270" width="10" height="140" as="geometry" />
        </mxCell>
        <mxCell id="sh2D33XTM4yPddAIKR61-10" value="" style="endArrow=none;dashed=1;html=1;rounded=0;entryX=0.5;entryY=1;entryDx=0;entryDy=0;entryPerimeter=0;" edge="1" parent="1" source="sh2D33XTM4yPddAIKR61-9" target="sh2D33XTM4yPddAIKR61-2">
          <mxGeometry width="50" height="50" relative="1" as="geometry">
            <mxPoint x="120" y="260" as="sourcePoint" />
            <mxPoint x="120" y="200" as="targetPoint" />
          </mxGeometry>
        </mxCell>
        <mxCell id="sh2D33XTM4yPddAIKR61-11" value="" style="endArrow=none;dashed=1;html=1;rounded=0;" edge="1" parent="1" source="sh2D33XTM4yPddAIKR61-9">
          <mxGeometry width="50" height="50" relative="1" as="geometry">
            <mxPoint x="130" y="280" as="sourcePoint" />
            <mxPoint x="120" y="440" as="targetPoint" />
          </mxGeometry>
        </mxCell>
        <mxCell id="sh2D33XTM4yPddAIKR61-12" value="" style="endArrow=classic;html=1;rounded=0;" edge="1" parent="1">
          <mxGeometry relative="1" as="geometry">
            <mxPoint x="125" y="280" as="sourcePoint" />
            <mxPoint x="445" y="279.9999999999999" as="targetPoint" />
          </mxGeometry>
        </mxCell>
        <mxCell id="sh2D33XTM4yPddAIKR61-13" value="Смотрит настройки" style="edgeLabel;resizable=0;html=1;;align=center;verticalAlign=middle;" connectable="0" vertex="1" parent="sh2D33XTM4yPddAIKR61-12">
          <mxGeometry relative="1" as="geometry" />
        </mxCell>
        <mxCell id="sh2D33XTM4yPddAIKR61-15" value="" style="html=1;points=[[0,0,0,0,5],[0,1,0,0,-5],[1,0,0,0,5],[1,1,0,0,-5]];perimeter=orthogonalPerimeter;outlineConnect=0;targetShapes=umlLifeline;portConstraint=eastwest;newEdgeStyle={&quot;curved&quot;:0,&quot;rounded&quot;:0};fillColor=light-dark(#23458b, #6db2ff);fontColor=#ffffff;strokeColor=#001DBC;" vertex="1" parent="1">
          <mxGeometry x="445" y="280" width="10" height="120" as="geometry" />
        </mxCell>
        <mxCell id="sh2D33XTM4yPddAIKR61-16" value="" style="endArrow=none;dashed=1;html=1;rounded=0;entryX=0.5;entryY=1;entryDx=0;entryDy=0;entryPerimeter=0;" edge="1" parent="1" source="sh2D33XTM4yPddAIKR61-15">
          <mxGeometry width="50" height="50" relative="1" as="geometry">
            <mxPoint x="450" y="260" as="sourcePoint" />
            <mxPoint x="450" y="200" as="targetPoint" />
          </mxGeometry>
        </mxCell>
        <mxCell id="sh2D33XTM4yPddAIKR61-17" value="" style="endArrow=none;dashed=1;html=1;rounded=0;" edge="1" parent="1" source="sh2D33XTM4yPddAIKR61-15">
          <mxGeometry width="50" height="50" relative="1" as="geometry">
            <mxPoint x="460" y="280" as="sourcePoint" />
            <mxPoint x="450" y="440" as="targetPoint" />
          </mxGeometry>
        </mxCell>
        <mxCell id="sh2D33XTM4yPddAIKR61-18" value="Ок" style="endArrow=open;endSize=12;dashed=1;html=1;rounded=0;" edge="1" parent="1">
          <mxGeometry width="160" relative="1" as="geometry">
            <mxPoint x="445" y="400" as="sourcePoint" />
            <mxPoint x="125" y="400" as="targetPoint" />
          </mxGeometry>
        </mxCell>
        <mxCell id="sh2D33XTM4yPddAIKR61-19" value="" style="endArrow=classic;html=1;rounded=0;" edge="1" parent="1">
          <mxGeometry relative="1" as="geometry">
            <mxPoint x="455" y="290" as="sourcePoint" />
            <mxPoint x="775" y="289.9999999999999" as="targetPoint" />
          </mxGeometry>
        </mxCell>
        <mxCell id="sh2D33XTM4yPddAIKR61-20" value="Смотрит настройки" style="edgeLabel;resizable=0;html=1;;align=center;verticalAlign=middle;" connectable="0" vertex="1" parent="sh2D33XTM4yPddAIKR61-19">
          <mxGeometry relative="1" as="geometry" />
        </mxCell>
        <mxCell id="sh2D33XTM4yPddAIKR61-21" value="" style="html=1;points=[[0,0,0,0,5],[0,1,0,0,-5],[1,0,0,0,5],[1,1,0,0,-5]];perimeter=orthogonalPerimeter;outlineConnect=0;targetShapes=umlLifeline;portConstraint=eastwest;newEdgeStyle={&quot;curved&quot;:0,&quot;rounded&quot;:0};fillColor=light-dark(#23458b, #6db2ff);fontColor=#ffffff;strokeColor=#001DBC;" vertex="1" parent="1">
          <mxGeometry x="775" y="290" width="10" height="100" as="geometry" />
        </mxCell>
        <mxCell id="sh2D33XTM4yPddAIKR61-22" value="" style="endArrow=none;dashed=1;html=1;rounded=0;entryX=0.5;entryY=1;entryDx=0;entryDy=0;entryPerimeter=0;" edge="1" parent="1" source="sh2D33XTM4yPddAIKR61-21">
          <mxGeometry width="50" height="50" relative="1" as="geometry">
            <mxPoint x="780" y="260" as="sourcePoint" />
            <mxPoint x="780" y="200" as="targetPoint" />
          </mxGeometry>
        </mxCell>
        <mxCell id="sh2D33XTM4yPddAIKR61-23" value="" style="endArrow=none;dashed=1;html=1;rounded=0;" edge="1" parent="1" source="sh2D33XTM4yPddAIKR61-21" target="sh2D33XTM4yPddAIKR61-47">
          <mxGeometry width="50" height="50" relative="1" as="geometry">
            <mxPoint x="790" y="280" as="sourcePoint" />
            <mxPoint x="780" y="440" as="targetPoint" />
          </mxGeometry>
        </mxCell>
        <mxCell id="sh2D33XTM4yPddAIKR61-24" value="" style="html=1;points=[[0,0,0,0,5],[0,1,0,0,-5],[1,0,0,0,5],[1,1,0,0,-5]];perimeter=orthogonalPerimeter;outlineConnect=0;targetShapes=umlLifeline;portConstraint=eastwest;newEdgeStyle={&quot;curved&quot;:0,&quot;rounded&quot;:0};fillColor=light-dark(#23458b, #6db2ff);fontColor=#ffffff;strokeColor=#001DBC;" vertex="1" parent="1">
          <mxGeometry x="785" y="310" width="10" height="40" as="geometry" />
        </mxCell>
        <mxCell id="sh2D33XTM4yPddAIKR61-25" value="Аутентификация" style="endArrow=block;endSize=16;endFill=0;html=1;rounded=0;" edge="1" parent="1" target="sh2D33XTM4yPddAIKR61-24">
          <mxGeometry x="0.1" y="20" width="160" relative="1" as="geometry">
            <mxPoint x="785" y="300" as="sourcePoint" />
            <mxPoint x="820" y="380" as="targetPoint" />
            <Array as="points">
              <mxPoint x="820" y="300" />
              <mxPoint x="820" y="340" />
            </Array>
            <mxPoint as="offset" />
          </mxGeometry>
        </mxCell>
        <mxCell id="sh2D33XTM4yPddAIKR61-26" value="" style="endArrow=classic;html=1;rounded=0;" edge="1" parent="1">
          <mxGeometry relative="1" as="geometry">
            <mxPoint x="785" y="360" as="sourcePoint" />
            <mxPoint x="1105" y="359.9999999999999" as="targetPoint" />
          </mxGeometry>
        </mxCell>
        <mxCell id="sh2D33XTM4yPddAIKR61-27" value="Смотрит настройки" style="edgeLabel;resizable=0;html=1;;align=center;verticalAlign=middle;" connectable="0" vertex="1" parent="sh2D33XTM4yPddAIKR61-26">
          <mxGeometry relative="1" as="geometry" />
        </mxCell>
        <mxCell id="sh2D33XTM4yPddAIKR61-28" value="" style="html=1;points=[[0,0,0,0,5],[0,1,0,0,-5],[1,0,0,0,5],[1,1,0,0,-5]];perimeter=orthogonalPerimeter;outlineConnect=0;targetShapes=umlLifeline;portConstraint=eastwest;newEdgeStyle={&quot;curved&quot;:0,&quot;rounded&quot;:0};fillColor=light-dark(#23458b, #6db2ff);fontColor=#ffffff;strokeColor=#001DBC;" vertex="1" parent="1">
          <mxGeometry x="1105" y="360" width="10" height="20" as="geometry" />
        </mxCell>
        <mxCell id="sh2D33XTM4yPddAIKR61-29" value="" style="endArrow=none;dashed=1;html=1;rounded=0;entryX=0.5;entryY=1;entryDx=0;entryDy=0;entryPerimeter=0;" edge="1" parent="1" source="sh2D33XTM4yPddAIKR61-28">
          <mxGeometry width="50" height="50" relative="1" as="geometry">
            <mxPoint x="1110" y="260" as="sourcePoint" />
            <mxPoint x="1110" y="200" as="targetPoint" />
          </mxGeometry>
        </mxCell>
        <mxCell id="sh2D33XTM4yPddAIKR61-30" value="" style="endArrow=none;dashed=1;html=1;rounded=0;" edge="1" parent="1" source="sh2D33XTM4yPddAIKR61-28" target="sh2D33XTM4yPddAIKR61-52">
          <mxGeometry width="50" height="50" relative="1" as="geometry">
            <mxPoint x="1120" y="280" as="sourcePoint" />
            <mxPoint x="1110" y="440" as="targetPoint" />
          </mxGeometry>
        </mxCell>
        <mxCell id="sh2D33XTM4yPddAIKR61-31" value="" style="endArrow=classic;html=1;rounded=0;" edge="1" parent="1">
          <mxGeometry relative="1" as="geometry">
            <mxPoint x="1115" y="369.81" as="sourcePoint" />
            <mxPoint x="1435" y="369.8099999999999" as="targetPoint" />
          </mxGeometry>
        </mxCell>
        <mxCell id="sh2D33XTM4yPddAIKR61-32" value="Смотрит настройки" style="edgeLabel;resizable=0;html=1;;align=center;verticalAlign=middle;" connectable="0" vertex="1" parent="sh2D33XTM4yPddAIKR61-31">
          <mxGeometry relative="1" as="geometry" />
        </mxCell>
        <mxCell id="sh2D33XTM4yPddAIKR61-33" value="" style="html=1;points=[[0,0,0,0,5],[0,1,0,0,-5],[1,0,0,0,5],[1,1,0,0,-5]];perimeter=orthogonalPerimeter;outlineConnect=0;targetShapes=umlLifeline;portConstraint=eastwest;newEdgeStyle={&quot;curved&quot;:0,&quot;rounded&quot;:0};fillColor=light-dark(#23458b, #6db2ff);fontColor=#ffffff;strokeColor=#001DBC;" vertex="1" parent="1">
          <mxGeometry x="1435" y="360" width="10" height="19.81" as="geometry" />
        </mxCell>
        <mxCell id="sh2D33XTM4yPddAIKR61-34" value="" style="endArrow=none;dashed=1;html=1;rounded=0;entryX=0.5;entryY=1;entryDx=0;entryDy=0;entryPerimeter=0;" edge="1" parent="1" source="sh2D33XTM4yPddAIKR61-33" target="sh2D33XTM4yPddAIKR61-6">
          <mxGeometry width="50" height="50" relative="1" as="geometry">
            <mxPoint x="1440" y="269.81" as="sourcePoint" />
            <mxPoint x="1440" y="209.81" as="targetPoint" />
          </mxGeometry>
        </mxCell>
        <mxCell id="sh2D33XTM4yPddAIKR61-35" value="" style="endArrow=none;dashed=1;html=1;rounded=0;" edge="1" parent="1" source="sh2D33XTM4yPddAIKR61-33" target="sh2D33XTM4yPddAIKR61-55">
          <mxGeometry width="50" height="50" relative="1" as="geometry">
            <mxPoint x="1450" y="289.81" as="sourcePoint" />
            <mxPoint x="1440" y="410.1803703703704" as="targetPoint" />
          </mxGeometry>
        </mxCell>
        <mxCell id="sh2D33XTM4yPddAIKR61-36" value="Ок" style="endArrow=open;endSize=12;dashed=1;html=1;rounded=0;" edge="1" parent="1">
          <mxGeometry width="160" relative="1" as="geometry">
            <mxPoint x="1105" y="379.81" as="sourcePoint" />
            <mxPoint x="785" y="379.81" as="targetPoint" />
          </mxGeometry>
        </mxCell>
        <mxCell id="sh2D33XTM4yPddAIKR61-37" value="Ок" style="endArrow=open;endSize=12;dashed=1;html=1;rounded=0;" edge="1" parent="1">
          <mxGeometry width="160" relative="1" as="geometry">
            <mxPoint x="775" y="390" as="sourcePoint" />
            <mxPoint x="455" y="390" as="targetPoint" />
          </mxGeometry>
        </mxCell>
        <mxCell id="sh2D33XTM4yPddAIKR61-38" value="" style="html=1;points=[[0,0,0,0,5],[0,1,0,0,-5],[1,0,0,0,5],[1,1,0,0,-5]];perimeter=orthogonalPerimeter;outlineConnect=0;targetShapes=umlLifeline;portConstraint=eastwest;newEdgeStyle={&quot;curved&quot;:0,&quot;rounded&quot;:0};fillColor=light-dark(#23458b, #6db2ff);fontColor=#ffffff;strokeColor=#001DBC;" vertex="1" parent="1">
          <mxGeometry x="115" y="440" width="10" height="140" as="geometry" />
        </mxCell>
        <mxCell id="sh2D33XTM4yPddAIKR61-39" value="" style="endArrow=classic;html=1;rounded=0;" edge="1" parent="1">
          <mxGeometry relative="1" as="geometry">
            <mxPoint x="125" y="450" as="sourcePoint" />
            <mxPoint x="445" y="449.9999999999999" as="targetPoint" />
          </mxGeometry>
        </mxCell>
        <mxCell id="sh2D33XTM4yPddAIKR61-40" value="Изменяет настройки" style="edgeLabel;resizable=0;html=1;;align=center;verticalAlign=middle;" connectable="0" vertex="1" parent="sh2D33XTM4yPddAIKR61-39">
          <mxGeometry relative="1" as="geometry" />
        </mxCell>
        <mxCell id="sh2D33XTM4yPddAIKR61-41" value="" style="html=1;points=[[0,0,0,0,5],[0,1,0,0,-5],[1,0,0,0,5],[1,1,0,0,-5]];perimeter=orthogonalPerimeter;outlineConnect=0;targetShapes=umlLifeline;portConstraint=eastwest;newEdgeStyle={&quot;curved&quot;:0,&quot;rounded&quot;:0};fillColor=light-dark(#23458b, #6db2ff);fontColor=#ffffff;strokeColor=#001DBC;" vertex="1" parent="1">
          <mxGeometry x="445" y="450" width="10" height="120" as="geometry" />
        </mxCell>
        <mxCell id="sh2D33XTM4yPddAIKR61-42" value="" style="endArrow=none;dashed=1;html=1;rounded=0;" edge="1" parent="1" source="sh2D33XTM4yPddAIKR61-41">
          <mxGeometry width="50" height="50" relative="1" as="geometry">
            <mxPoint x="450" y="430" as="sourcePoint" />
            <mxPoint x="450" y="400" as="targetPoint" />
          </mxGeometry>
        </mxCell>
        <mxCell id="sh2D33XTM4yPddAIKR61-43" value="Ок" style="endArrow=open;endSize=12;dashed=1;html=1;rounded=0;" edge="1" parent="1">
          <mxGeometry width="160" relative="1" as="geometry">
            <mxPoint x="445" y="570" as="sourcePoint" />
            <mxPoint x="125" y="570" as="targetPoint" />
          </mxGeometry>
        </mxCell>
        <mxCell id="sh2D33XTM4yPddAIKR61-44" value="" style="endArrow=classic;html=1;rounded=0;" edge="1" parent="1">
          <mxGeometry relative="1" as="geometry">
            <mxPoint x="455" y="460" as="sourcePoint" />
            <mxPoint x="775" y="459.9999999999999" as="targetPoint" />
          </mxGeometry>
        </mxCell>
        <mxCell id="sh2D33XTM4yPddAIKR61-45" value="Изменяет&amp;nbsp;настройки" style="edgeLabel;resizable=0;html=1;;align=center;verticalAlign=middle;" connectable="0" vertex="1" parent="sh2D33XTM4yPddAIKR61-44">
          <mxGeometry relative="1" as="geometry" />
        </mxCell>
        <mxCell id="sh2D33XTM4yPddAIKR61-46" value="Ок" style="endArrow=open;endSize=12;dashed=1;html=1;rounded=0;" edge="1" parent="1">
          <mxGeometry width="160" relative="1" as="geometry">
            <mxPoint x="775" y="560" as="sourcePoint" />
            <mxPoint x="455" y="560" as="targetPoint" />
          </mxGeometry>
        </mxCell>
        <mxCell id="sh2D33XTM4yPddAIKR61-47" value="" style="html=1;points=[[0,0,0,0,5],[0,1,0,0,-5],[1,0,0,0,5],[1,1,0,0,-5]];perimeter=orthogonalPerimeter;outlineConnect=0;targetShapes=umlLifeline;portConstraint=eastwest;newEdgeStyle={&quot;curved&quot;:0,&quot;rounded&quot;:0};fillColor=light-dark(#23458b, #6db2ff);fontColor=#ffffff;strokeColor=#001DBC;" vertex="1" parent="1">
          <mxGeometry x="775" y="460" width="10" height="100" as="geometry" />
        </mxCell>
        <mxCell id="sh2D33XTM4yPddAIKR61-48" value="" style="html=1;points=[[0,0,0,0,5],[0,1,0,0,-5],[1,0,0,0,5],[1,1,0,0,-5]];perimeter=orthogonalPerimeter;outlineConnect=0;targetShapes=umlLifeline;portConstraint=eastwest;newEdgeStyle={&quot;curved&quot;:0,&quot;rounded&quot;:0};fillColor=light-dark(#23458b, #6db2ff);fontColor=#ffffff;strokeColor=#001DBC;" vertex="1" parent="1">
          <mxGeometry x="785" y="480" width="10" height="40" as="geometry" />
        </mxCell>
        <mxCell id="sh2D33XTM4yPddAIKR61-49" value="Аутентификация" style="endArrow=block;endSize=16;endFill=0;html=1;rounded=0;" edge="1" parent="1" target="sh2D33XTM4yPddAIKR61-48">
          <mxGeometry x="0.1" y="20" width="160" relative="1" as="geometry">
            <mxPoint x="785" y="470" as="sourcePoint" />
            <mxPoint x="820" y="550" as="targetPoint" />
            <Array as="points">
              <mxPoint x="820" y="470" />
              <mxPoint x="820" y="510" />
            </Array>
            <mxPoint as="offset" />
          </mxGeometry>
        </mxCell>
        <mxCell id="sh2D33XTM4yPddAIKR61-50" value="" style="endArrow=classic;html=1;rounded=0;" edge="1" parent="1">
          <mxGeometry relative="1" as="geometry">
            <mxPoint x="785" y="530" as="sourcePoint" />
            <mxPoint x="1105" y="529.9999999999999" as="targetPoint" />
          </mxGeometry>
        </mxCell>
        <mxCell id="sh2D33XTM4yPddAIKR61-51" value="Изменяет&amp;nbsp;настройки" style="edgeLabel;resizable=0;html=1;;align=center;verticalAlign=middle;" connectable="0" vertex="1" parent="sh2D33XTM4yPddAIKR61-50">
          <mxGeometry relative="1" as="geometry" />
        </mxCell>
        <mxCell id="sh2D33XTM4yPddAIKR61-52" value="" style="html=1;points=[[0,0,0,0,5],[0,1,0,0,-5],[1,0,0,0,5],[1,1,0,0,-5]];perimeter=orthogonalPerimeter;outlineConnect=0;targetShapes=umlLifeline;portConstraint=eastwest;newEdgeStyle={&quot;curved&quot;:0,&quot;rounded&quot;:0};fillColor=light-dark(#23458b, #6db2ff);fontColor=#ffffff;strokeColor=#001DBC;" vertex="1" parent="1">
          <mxGeometry x="1105" y="530" width="10" height="20" as="geometry" />
        </mxCell>
        <mxCell id="sh2D33XTM4yPddAIKR61-53" value="" style="endArrow=classic;html=1;rounded=0;" edge="1" parent="1">
          <mxGeometry relative="1" as="geometry">
            <mxPoint x="1115" y="539.71" as="sourcePoint" />
            <mxPoint x="1435" y="539.7099999999999" as="targetPoint" />
          </mxGeometry>
        </mxCell>
        <mxCell id="sh2D33XTM4yPddAIKR61-54" value="Изменяет&amp;nbsp;настройки" style="edgeLabel;resizable=0;html=1;;align=center;verticalAlign=middle;" connectable="0" vertex="1" parent="sh2D33XTM4yPddAIKR61-53">
          <mxGeometry relative="1" as="geometry" />
        </mxCell>
        <mxCell id="sh2D33XTM4yPddAIKR61-55" value="" style="html=1;points=[[0,0,0,0,5],[0,1,0,0,-5],[1,0,0,0,5],[1,1,0,0,-5]];perimeter=orthogonalPerimeter;outlineConnect=0;targetShapes=umlLifeline;portConstraint=eastwest;newEdgeStyle={&quot;curved&quot;:0,&quot;rounded&quot;:0};fillColor=light-dark(#23458b, #6db2ff);fontColor=#ffffff;strokeColor=#001DBC;" vertex="1" parent="1">
          <mxGeometry x="1435" y="530" width="10" height="19.81" as="geometry" />
        </mxCell>
        <mxCell id="sh2D33XTM4yPddAIKR61-56" value="" style="endArrow=none;dashed=1;html=1;rounded=0;" edge="1" parent="1" source="sh2D33XTM4yPddAIKR61-55">
          <mxGeometry width="50" height="50" relative="1" as="geometry">
            <mxPoint x="1450" y="459.81" as="sourcePoint" />
            <mxPoint x="1440" y="760" as="targetPoint" />
          </mxGeometry>
        </mxCell>
        <mxCell id="sh2D33XTM4yPddAIKR61-57" value="Ок" style="endArrow=open;endSize=12;dashed=1;html=1;rounded=0;" edge="1" parent="1">
          <mxGeometry width="160" relative="1" as="geometry">
            <mxPoint x="1105" y="549.81" as="sourcePoint" />
            <mxPoint x="785" y="549.81" as="targetPoint" />
          </mxGeometry>
        </mxCell>
        <mxCell id="sh2D33XTM4yPddAIKR61-58" value="" style="endArrow=none;dashed=1;html=1;rounded=0;" edge="1" parent="1" target="sh2D33XTM4yPddAIKR61-59">
          <mxGeometry width="50" height="50" relative="1" as="geometry">
            <mxPoint x="780" y="560" as="sourcePoint" />
            <mxPoint x="780" y="610" as="targetPoint" />
          </mxGeometry>
        </mxCell>
        <mxCell id="sh2D33XTM4yPddAIKR61-59" value="" style="html=1;points=[[0,0,0,0,5],[0,1,0,0,-5],[1,0,0,0,5],[1,1,0,0,-5]];perimeter=orthogonalPerimeter;outlineConnect=0;targetShapes=umlLifeline;portConstraint=eastwest;newEdgeStyle={&quot;curved&quot;:0,&quot;rounded&quot;:0};fillColor=light-dark(#23458b, #6db2ff);fontColor=#ffffff;strokeColor=#001DBC;" vertex="1" parent="1">
          <mxGeometry x="775" y="600" width="10" height="120" as="geometry" />
        </mxCell>
        <mxCell id="sh2D33XTM4yPddAIKR61-62" value="" style="endArrow=classic;html=1;rounded=0;" edge="1" parent="1" target="sh2D33XTM4yPddAIKR61-69">
          <mxGeometry relative="1" as="geometry">
            <mxPoint x="785" y="700" as="sourcePoint" />
            <mxPoint x="1680" y="700" as="targetPoint" />
          </mxGeometry>
        </mxCell>
        <mxCell id="sh2D33XTM4yPddAIKR61-63" value="SignalR оповещает об изменении настроек" style="edgeLabel;resizable=0;html=1;;align=center;verticalAlign=middle;" connectable="0" vertex="1" parent="sh2D33XTM4yPddAIKR61-62">
          <mxGeometry relative="1" as="geometry" />
        </mxCell>
        <mxCell id="sh2D33XTM4yPddAIKR61-64" value="" style="endArrow=none;dashed=1;html=1;rounded=0;entryX=0.5;entryY=1;entryDx=0;entryDy=0;entryPerimeter=0;" edge="1" parent="1" source="sh2D33XTM4yPddAIKR61-69">
          <mxGeometry width="50" height="50" relative="1" as="geometry">
            <mxPoint x="1780" y="680" as="sourcePoint" />
            <mxPoint x="1780" y="200" as="targetPoint" />
          </mxGeometry>
        </mxCell>
        <mxCell id="sh2D33XTM4yPddAIKR61-65" value="" style="endArrow=none;dashed=1;html=1;rounded=0;entryX=0.5;entryY=1;entryDx=0;entryDy=0;entryPerimeter=0;" edge="1" parent="1" source="sh2D33XTM4yPddAIKR61-72">
          <mxGeometry width="50" height="50" relative="1" as="geometry">
            <mxPoint x="2110" y="690" as="sourcePoint" />
            <mxPoint x="2110" y="200" as="targetPoint" />
          </mxGeometry>
        </mxCell>
        <mxCell id="sh2D33XTM4yPddAIKR61-66" value="" style="endArrow=none;dashed=1;html=1;rounded=0;" edge="1" parent="1" target="sh2D33XTM4yPddAIKR61-41">
          <mxGeometry width="50" height="50" relative="1" as="geometry">
            <mxPoint x="449" y="760" as="sourcePoint" />
            <mxPoint x="449.33" y="580" as="targetPoint" />
          </mxGeometry>
        </mxCell>
        <mxCell id="sh2D33XTM4yPddAIKR61-67" value="" style="endArrow=none;dashed=1;html=1;rounded=0;entryX=0.5;entryY=1;entryDx=0;entryDy=0;entryPerimeter=0;" edge="1" parent="1">
          <mxGeometry width="50" height="50" relative="1" as="geometry">
            <mxPoint x="120" y="760" as="sourcePoint" />
            <mxPoint x="119.62" y="580" as="targetPoint" />
          </mxGeometry>
        </mxCell>
        <mxCell id="sh2D33XTM4yPddAIKR61-68" value="" style="endArrow=none;dashed=1;html=1;rounded=0;entryX=0.5;entryY=1;entryDx=0;entryDy=0;entryPerimeter=0;" edge="1" parent="1">
          <mxGeometry width="50" height="50" relative="1" as="geometry">
            <mxPoint x="780" y="760" as="sourcePoint" />
            <mxPoint x="779.62" y="720" as="targetPoint" />
          </mxGeometry>
        </mxCell>
        <mxCell id="sh2D33XTM4yPddAIKR61-69" value="" style="html=1;points=[[0,0,0,0,5],[0,1,0,0,-5],[1,0,0,0,5],[1,1,0,0,-5]];perimeter=orthogonalPerimeter;outlineConnect=0;targetShapes=umlLifeline;portConstraint=eastwest;newEdgeStyle={&quot;curved&quot;:0,&quot;rounded&quot;:0};fillColor=light-dark(#23458b, #6db2ff);fontColor=#ffffff;strokeColor=#001DBC;" vertex="1" parent="1">
          <mxGeometry x="1775" y="700" width="10" height="30" as="geometry" />
        </mxCell>
        <mxCell id="sh2D33XTM4yPddAIKR61-70" value="" style="endArrow=classic;html=1;rounded=0;" edge="1" parent="1">
          <mxGeometry relative="1" as="geometry">
            <mxPoint x="1785" y="710" as="sourcePoint" />
            <mxPoint x="2105" y="709.9999999999999" as="targetPoint" />
          </mxGeometry>
        </mxCell>
        <mxCell id="sh2D33XTM4yPddAIKR61-71" value="Передает&amp;nbsp;настройки" style="edgeLabel;resizable=0;html=1;;align=center;verticalAlign=middle;" connectable="0" vertex="1" parent="sh2D33XTM4yPddAIKR61-70">
          <mxGeometry relative="1" as="geometry" />
        </mxCell>
        <mxCell id="sh2D33XTM4yPddAIKR61-72" value="" style="html=1;points=[[0,0,0,0,5],[0,1,0,0,-5],[1,0,0,0,5],[1,1,0,0,-5]];perimeter=orthogonalPerimeter;outlineConnect=0;targetShapes=umlLifeline;portConstraint=eastwest;newEdgeStyle={&quot;curved&quot;:0,&quot;rounded&quot;:0};fillColor=light-dark(#23458b, #6db2ff);fontColor=#ffffff;strokeColor=#001DBC;" vertex="1" parent="1">
          <mxGeometry x="2105" y="710" width="10" height="20" as="geometry" />
        </mxCell>
        <mxCell id="sh2D33XTM4yPddAIKR61-73" value="" style="endArrow=none;dashed=1;html=1;rounded=0;" edge="1" parent="1">
          <mxGeometry width="50" height="50" relative="1" as="geometry">
            <mxPoint x="1780" y="760" as="sourcePoint" />
            <mxPoint x="1780" y="730" as="targetPoint" />
          </mxGeometry>
        </mxCell>
        <mxCell id="sh2D33XTM4yPddAIKR61-74" value="" style="endArrow=none;dashed=1;html=1;rounded=0;" edge="1" parent="1">
          <mxGeometry width="50" height="50" relative="1" as="geometry">
            <mxPoint x="2109.75" y="760" as="sourcePoint" />
            <mxPoint x="2109.75" y="730" as="targetPoint" />
          </mxGeometry>
        </mxCell>
        <mxCell id="sh2D33XTM4yPddAIKR61-75" value="" style="html=1;points=[[0,0,0,0,5],[0,1,0,0,-5],[1,0,0,0,5],[1,1,0,0,-5]];perimeter=orthogonalPerimeter;outlineConnect=0;targetShapes=umlLifeline;portConstraint=eastwest;newEdgeStyle={&quot;curved&quot;:0,&quot;rounded&quot;:0};fillColor=light-dark(#23458b, #6db2ff);fontColor=#ffffff;strokeColor=#001DBC;" vertex="1" parent="1">
          <mxGeometry x="1105" y="590" width="10" height="70" as="geometry" />
        </mxCell>
        <mxCell id="sh2D33XTM4yPddAIKR61-76" value="" style="endArrow=none;dashed=1;html=1;rounded=0;" edge="1" parent="1">
          <mxGeometry width="50" height="50" relative="1" as="geometry">
            <mxPoint x="1109.73" y="660" as="sourcePoint" />
            <mxPoint x="1110" y="760" as="targetPoint" />
          </mxGeometry>
        </mxCell>
        <mxCell id="sh2D33XTM4yPddAIKR61-77" value="" style="endArrow=none;dashed=1;html=1;rounded=0;" edge="1" parent="1">
          <mxGeometry width="50" height="50" relative="1" as="geometry">
            <mxPoint x="1109.73" y="550" as="sourcePoint" />
            <mxPoint x="1110" y="590" as="targetPoint" />
          </mxGeometry>
        </mxCell>
        <mxCell id="sh2D33XTM4yPddAIKR61-78" value="" style="endArrow=classic;html=1;rounded=0;" edge="1" parent="1">
          <mxGeometry relative="1" as="geometry">
            <mxPoint x="1105" y="600" as="sourcePoint" />
            <mxPoint x="785" y="600" as="targetPoint" />
          </mxGeometry>
        </mxCell>
        <mxCell id="sh2D33XTM4yPddAIKR61-79" value="SignalR оповещает об изменении настроек" style="edgeLabel;resizable=0;html=1;;align=center;verticalAlign=middle;" connectable="0" vertex="1" parent="sh2D33XTM4yPddAIKR61-78">
          <mxGeometry relative="1" as="geometry" />
        </mxCell>
      </root>
    </mxGraphModel>
  </diagram>
</mxfile>
